<?xml version="1.0" encoding="UTF-8"?>
<svg version="1.1" xmlns="http://www.w3.org/2000/svg" width="860" height="146">
<path d="M0 0 C283.8 0 567.6 0 860 0 C860 48.18 860 96.36 860 146 C576.2 146 292.4 146 0 146 C0 97.82 0 49.64 0 0 Z " fill="#1B1B1B" transform="translate(0,0)"/>
<path d="M0 0 C56.14223195 0 56.14223195 0 71.16015625 14.03515625 C81.92512765 25.53150575 86.17619189 38.36101003 86.25 53.75 C86.270625 54.80960938 86.29125 55.86921875 86.3125 56.9609375 C86.34407309 63.32291474 85.76026803 68.26327949 83 74 C82.47921875 75.175625 81.9584375 76.35125 81.421875 77.5625 C74.72594832 91.32982589 66.78513954 99.88238707 52.125 105.375 C34.96307171 111.26640822 19.82823772 108 0 108 C0 72.36 0 36.72 0 0 Z " fill="#FBF3E7" transform="translate(625,26)"/>
<path d="M0 0 C57.97925365 0 57.97925365 0 67.23828125 8.99609375 C74.45863747 17.20904883 74.92625692 25.68215455 74.4921875 36.2421875 C74.06356652 41.79250287 72.75641924 46.74931507 69 51 C66.828125 52.2421875 66.828125 52.2421875 65 53 C65 53.66 65 54.32 65 55 C65.556875 55.185625 66.11375 55.37125 66.6875 55.5625 C70.91145939 58.18820448 73.20457201 62.33338896 75.3125 66.75 C77.28865054 76.09180254 76.4812952 85.52596341 71.30078125 93.671875 C65.51210957 101.35977688 60.05904815 104.98031728 51 108 C34.17 108 17.34 108 0 108 C0 72.36 0 36.72 0 0 Z " fill="#F9F1E6" transform="translate(379,26)"/>
<path d="M0 0 C8 0 8 0 10.50390625 1.6875 C11.18324219 2.450625 11.86257812 3.21375 12.5625 4 C13.31917969 4.82886719 14.07585937 5.65773438 14.85546875 6.51171875 C15.56316406 7.33285156 16.27085937 8.15398438 17 9 C17.57363281 9.64582031 18.14726562 10.29164062 18.73828125 10.95703125 C19.8525163 12.22018554 20.95767847 13.49138818 22.0546875 14.76953125 C24.48723786 17.55866027 26.99185671 20.27910864 29.5 23 C34.4030382 28.3266859 39.20110697 33.73176294 43.91015625 39.23046875 C44.53792969 39.95878906 45.16570312 40.68710938 45.8125 41.4375 C46.37582031 42.09621094 46.93914062 42.75492188 47.51953125 43.43359375 C48.93469208 45.11019986 48.93469208 45.11019986 51 46 C51.26337158 45.41444336 51.52674316 44.82888672 51.7980957 44.22558594 C53.05322783 41.90143714 54.40685954 40.29392262 56.23046875 38.390625 C56.86919922 37.71773437 57.50792969 37.04484375 58.16601562 36.3515625 C58.83310547 35.65804687 59.50019531 34.96453125 60.1875 34.25 C64.68496013 29.54221089 69.098702 24.79525433 73.36352539 19.875 C76.17308184 16.65593487 79.08524415 13.53353701 81.9921875 10.40234375 C84.72987531 7.47301569 84.72987531 7.47301569 87.16699219 4.29785156 C88.3359375 2.6328125 88.3359375 2.6328125 91 0 C93.64 0 96.28 0 99 0 C99 35.97 99 71.94 99 109 C91.74 109 84.48 109 77 109 C76.505 80.29 76.505 80.29 76 51 C72.535 54.96 72.535 54.96 69 59 C66.99572177 61.04471763 64.98640973 63.06484673 62.9375 65.0625 C58.73144124 69.21083369 54.74501082 73.42276455 51 78 C47.98611927 76.64941886 45.8965323 75.14395225 43.57421875 72.8046875 C42.94531738 72.17449707 42.31641602 71.54430664 41.66845703 70.89501953 C41.01474121 70.22841309 40.36102539 69.56180664 39.6875 68.875 C39.01831543 68.19937012 38.34913086 67.52374023 37.65966797 66.82763672 C33.26395369 62.36322263 29.0148783 57.8121591 25 53 C24.505 52.505 24.505 52.505 24 52 C23.67 70.81 23.34 89.62 23 109 C15.41 109 7.82 109 0 109 C0 73.03 0 37.06 0 0 Z " fill="#FAF2E6" transform="translate(158,25)"/>
<path d="M0 0 C7 0 7 0 9.88671875 2.5703125 C10.84100547 3.7386071 11.77354906 4.92488787 12.6875 6.125 C13.73252111 7.41971642 14.7781099 8.7139748 15.82421875 10.0078125 C16.6138501 11.00603027 16.6138501 11.00603027 17.41943359 12.02441406 C19.86765668 15.08450384 22.4348034 18.03798903 25 21 C25.9967109 22.16223144 26.99280256 23.32499422 27.98828125 24.48828125 C30.02397769 26.86359208 32.06344576 29.2355951 34.10546875 31.60546875 C39.41339205 37.77139889 44.66523208 43.96761348 49.76953125 50.3046875 C52.77187392 53.93273731 55.89895316 57.45594647 59 61 C59.33 41.53 59.66 22.06 60 2 C67.26 2 74.52 2 82 2 C82 38.63 82 75.26 82 113 C75 113 75 113 71.9375 110.4375 C70.9383652 109.30903599 69.95983601 108.16207411 69 107 C68.47946045 106.40276123 67.9589209 105.80552246 67.42260742 105.19018555 C65.93127199 103.47395329 64.4647893 101.73887726 63 100 C61.77339825 98.60191218 60.54475444 97.20560817 59.3125 95.8125 C58.78269531 95.20019531 58.25289062 94.58789062 57.70703125 93.95703125 C55.66366569 91.6144085 53.58319141 89.30726578 51.5 87 C48.23609152 83.38323655 45.01209051 79.73610392 41.8125 76.0625 C38.97886919 72.83802356 36.09495245 69.65913397 33.21875 66.47265625 C30.55536058 63.50447755 27.92866658 60.5058965 25.3125 57.49609375 C24.56450684 56.64347059 23.80201622 55.80201622 23 55 C22.67 73.48 22.34 91.96 22 111 C14.74 111 7.48 111 0 111 C0 74.37 0 37.74 0 0 Z " fill="#FAF3E7" transform="translate(519,24)"/>
<path d="M0 0 C7.26 0 14.52 0 22 0 C22 14.19 22 28.38 22 43 C32.23 43 42.46 43 53 43 C53 28.81 53 14.62 53 0 C60.59 0 68.18 0 76 0 C76 35.64 76 71.28 76 108 C68.41 108 60.82 108 53 108 C53 93.81 53 79.62 53 65 C42.77 65 32.54 65 22 65 C22 79.19 22 93.38 22 108 C14.74 108 7.48 108 0 108 C0 72.36 0 36.72 0 0 Z " fill="#F9F1E5" transform="translate(13,26)"/>
<path d="M0 0 C7.26 0 14.52 0 22 0 C21.99887207 2.23007812 21.99774414 4.46015625 21.99658203 6.7578125 C21.99721103 14.14602275 22.03075684 21.5338236 22.0802784 28.92185974 C22.10928656 33.39905629 22.12738536 37.87573107 22.12011719 42.35302734 C22.11350459 46.67820949 22.13611739 51.00236237 22.17855453 55.32733154 C22.18965163 56.97300551 22.1904166 58.61878429 22.18042374 60.26446533 C21.93087394 71.79642245 21.93087394 71.79642245 27.32516479 81.65893555 C31.25569931 84.80617063 34.99515595 85.66634373 40 86 C45.34295293 85.36006457 49.07818773 83.80646485 53 80 C55.40252618 76.39621073 55.30615998 73.7566158 55.31884766 69.59106445 C55.33391609 68.46386993 55.33391609 68.46386993 55.34928894 67.31390381 C55.38017657 64.83037073 55.39717139 62.34694572 55.4140625 59.86328125 C55.43276968 58.14120042 55.45234275 56.4191288 55.4727478 54.69706726 C55.52412263 50.16467716 55.56371966 45.63225732 55.60089111 41.09973145 C55.64089726 36.4746156 55.69200504 31.84962402 55.7421875 27.22460938 C55.8390102 18.1498181 55.92236867 9.07497576 56 0 C63.59 0 71.18 0 79 0 C79.09068555 9.97994495 79.16393671 19.9596123 79.20724869 29.93987751 C79.22804547 34.5750654 79.25621693 39.20995464 79.30175781 43.8449707 C79.34549987 48.32539456 79.36919646 52.80553274 79.37950897 57.28615379 C79.3868498 58.98804401 79.40118362 60.68992016 79.42292023 62.39168739 C79.58591795 75.69244773 78.39442421 86.74948917 69 97 C60.66879574 105.44882126 51.00820552 108.98736685 39.25 109.375 C28.03056355 109.17122818 18.36763057 105.56075191 10 98 C7.56468702 95.17629659 5.78484186 92.26251643 4 89 C3.63118713 88.33888214 3.26237427 87.67776428 2.88238525 86.99661255 C-1.11419273 78.59520656 -0.50463576 69.81509277 -0.390625 60.7421875 C-0.38315189 58.98528695 -0.37746402 57.22837798 -0.37347412 55.47146606 C-0.35830185 50.87805612 -0.31909407 46.28516318 -0.2746582 41.69195557 C-0.23352264 36.99262482 -0.2154243 32.29320942 -0.1953125 27.59375 C-0.15259023 18.39557124 -0.08231075 9.19790977 0 0 Z " fill="#F8F0E5" transform="translate(730,26)"/>
<path d="M0 0 C2.3815918 0.24804688 2.3815918 0.24804688 5 1 C6.12817383 2.70507812 6.12817383 2.70507812 6.89453125 5.03125 C7.21760254 5.94261719 7.54067383 6.85398437 7.87353516 7.79296875 C8.43113525 9.38044922 8.43113525 9.38044922 9 11 C10.0130133 13.53681841 11.03707735 16.06690157 12.07421875 18.59375 C12.65740683 20.02979098 13.23998737 21.46607881 13.82202148 22.90258789 C14.12534393 23.65009308 14.42866638 24.39759827 14.74118042 25.16775513 C16.39581989 29.24568451 18.04942282 33.32403421 19.703125 37.40234375 C20.05015976 38.25815536 20.39719452 39.11396698 20.75474548 39.99571228 C24.45448811 49.11997428 28.152184 58.24506425 31.8475647 67.37109375 C32.56043855 69.13141213 33.27346534 70.89166859 33.98666382 72.65185547 C35.98604695 77.58651838 37.98185753 82.52260139 39.97381592 87.46026611 C41.07338805 90.1816303 42.17769535 92.90105231 43.28173828 95.62060547 C44.02264897 97.45402559 44.76337695 99.28751955 45.50390625 101.12109375 C45.85436508 101.9813063 46.20482391 102.84151886 46.56590271 103.72779846 C46.88519241 104.520728 47.20448212 105.31365753 47.53344727 106.13061523 C47.81728775 106.8311351 48.10112823 107.53165497 48.39356995 108.25340271 C49 110 49 110 49 112 C40.75 112 32.5 112 24 112 C20 103 20 103 20 100 C8.12 100 -3.76 100 -16 100 C-16.66 102.97 -17.32 105.94 -18 109 C-18.33 109.99 -18.66 110.98 -19 112 C-27.58 112 -36.16 112 -45 112 C-39.24107143 96.33035714 -39.24107143 96.33035714 -36.5 90.5 C-34.61699105 86.48847487 -33.01654855 82.43931691 -31.49609375 78.27734375 C-27.11229385 66.43673578 -22.304457 54.76286254 -17.5625 43.0625 C-16.6371977 40.77415812 -15.71206652 38.48574704 -14.78710938 36.19726562 C-9.9002009 24.1140277 -4.98455658 12.04330142 0 0 Z " fill="#F9F1E5" transform="translate(316,22)"/>
<path d="M0 0 C7.26 0 14.52 0 22 0 C22 35.64 22 71.28 22 108 C14.74 108 7.48 108 0 108 C0 72.36 0 36.72 0 0 Z " fill="#FBF3E7" transform="translate(473,26)"/>
<path d="M0 0 C7.26 0 14.52 0 22 0 C22 35.64 22 71.28 22 108 C14.74 108 7.48 108 0 108 C0 72.36 0 36.72 0 0 Z " fill="#FAF2E7" transform="translate(112,26)"/>
<path d="M0 0 C23.78494962 0 23.78494962 0 32.50390625 8.30078125 C39.75029091 16.53100926 41.4405732 24.8106031 41.24609375 35.6328125 C40.92832871 39.98064525 40.10156357 43.20285672 38 47 C37.5978125 47.74894531 37.195625 48.49789062 36.78125 49.26953125 C31.65841533 57.85027932 25.49365898 61.28752601 16 64 C10.72 64 5.44 64 0 64 C0 42.88 0 21.76 0 0 Z " fill="#1B1B1B" transform="translate(647,48)"/>
<path d="M0 0 C5.0428125 -0.0928125 5.0428125 -0.0928125 10.1875 -0.1875 C11.76374146 -0.22846802 11.76374146 -0.22846802 13.37182617 -0.27026367 C22.00104454 -0.34721422 22.00104454 -0.34721422 26 3 C28.5940636 6.02640753 29.23362622 8.17674616 28.9375 12.0625 C28.30356139 15.79569405 27.07167695 17.67297201 24 20 C21.49502996 21.25248502 19.79146726 21.11374406 16.9921875 21.09765625 C16.00605469 21.09443359 15.01992188 21.09121094 14.00390625 21.08789062 C12.97136719 21.07951172 11.93882812 21.07113281 10.875 21.0625 C9.31458984 21.05573242 9.31458984 21.05573242 7.72265625 21.04882812 C5.14841313 21.03701967 2.57419947 21.01908385 0 21 C0 14.07 0 7.14 0 0 Z " fill="#1B1B1A" transform="translate(402,91)"/>
<path d="M0 0 C3.56331377 -0.10807017 7.1233422 -0.18735316 10.6875 -0.25 C12.19860352 -0.30027344 12.19860352 -0.30027344 13.74023438 -0.3515625 C21.22531572 -0.45037546 21.22531572 -0.45037546 25.14453125 1.828125 C28.40326027 5.64255308 28.33509913 9.14106256 28 14 C26.34860695 17.5386994 25.28394771 18.81070153 22 21 C19.63989258 21.22705078 19.63989258 21.22705078 16.89453125 21.1953125 C15.91162109 21.18886719 14.92871094 21.18242188 13.91601562 21.17578125 C12.89185547 21.15902344 11.86769531 21.14226562 10.8125 21.125 C9.77673828 21.11597656 8.74097656 21.10695313 7.67382812 21.09765625 C5.11578694 21.07407983 2.55786447 21.03820876 0 21 C0 14.07 0 7.14 0 0 Z " fill="#1A1A1A" transform="translate(402,48)"/>
<path d="M0 0 C3.15380666 1.29324374 5.43855248 2.87710497 7 6 C8.08599182 16.50309235 8.08599182 16.50309235 4.6875 21.1875 C-0.05911199 24.38870343 -4.44197802 24.53818875 -10 24 C-14.18531174 22.27128428 -16.23950002 20.16960522 -18 16 C-18.54768238 11.07085861 -18.54281153 9.01075251 -16.1875 4.625 C-11.53685041 -0.95577951 -6.83943832 -0.8195618 0 0 Z " fill="#F7EFE3" transform="translate(842,111)"/>
<path d="M0 0 C2.08633513 3.12950269 2.89620721 5.65356706 3.9375 9.25 C5.03875844 12.95798253 6.13373349 16.54654583 7.75 20.0625 C9 23 9 23 9 27 C3.06 27 -2.88 27 -9 27 C-8.26502113 22.59012678 -7.65992192 20.0595833 -5.89453125 16.20703125 C-4.24623608 12.14027679 -3.10331223 7.90196954 -1.8671875 3.6953125 C-1 1 -1 1 0 0 Z " fill="#242423" transform="translate(318,75)"/>
</svg>
